<mxfile host="app.diagrams.net" modified="2024-06-05T14:56:55.508Z" agent="Mozilla/5.0 (Windows NT 10.0; Win64; x64) AppleWebKit/537.36 (KHTML, like Gecko) Chrome/125.0.0.0 Safari/537.36 Edg/125.0.0.0" etag="2QMUcLOfi4QCqjxLqXEL" version="24.4.14" type="onedrive">
  <diagram name="ページ1" id="5HD-J3yW9Bw1lxgdHWVV">
    <mxGraphModel grid="1" page="1" gridSize="10" guides="1" tooltips="1" connect="1" arrows="1" fold="1" pageScale="1" pageWidth="827" pageHeight="1169" math="0" shadow="0">
      <root>
        <mxCell id="0" />
        <mxCell id="1" parent="0" />
        <mxCell id="t27i11uLKwTqxH_jMoTj-17" style="edgeStyle=orthogonalEdgeStyle;rounded=0;orthogonalLoop=1;jettySize=auto;html=1;exitX=0.5;exitY=1;exitDx=0;exitDy=0;" edge="1" parent="1" source="t27i11uLKwTqxH_jMoTj-1" target="t27i11uLKwTqxH_jMoTj-3">
          <mxGeometry relative="1" as="geometry" />
        </mxCell>
        <mxCell id="t27i11uLKwTqxH_jMoTj-1" value="global num3&amp;nbsp;" style="rounded=1;whiteSpace=wrap;html=1;" vertex="1" parent="1">
          <mxGeometry x="160" y="120" width="120" height="60" as="geometry" />
        </mxCell>
        <mxCell id="t27i11uLKwTqxH_jMoTj-16" style="edgeStyle=orthogonalEdgeStyle;rounded=0;orthogonalLoop=1;jettySize=auto;html=1;exitX=0.5;exitY=1;exitDx=0;exitDy=0;entryX=0.5;entryY=0;entryDx=0;entryDy=0;" edge="1" parent="1" source="t27i11uLKwTqxH_jMoTj-2" target="t27i11uLKwTqxH_jMoTj-1">
          <mxGeometry relative="1" as="geometry" />
        </mxCell>
        <mxCell id="t27i11uLKwTqxH_jMoTj-2" value="fibo_tr(n)関数&lt;div&gt;開始&lt;/div&gt;" style="rounded=0;whiteSpace=wrap;html=1;" vertex="1" parent="1">
          <mxGeometry x="160" y="40" width="120" height="60" as="geometry" />
        </mxCell>
        <mxCell id="t27i11uLKwTqxH_jMoTj-18" style="edgeStyle=orthogonalEdgeStyle;rounded=0;orthogonalLoop=1;jettySize=auto;html=1;exitX=0.5;exitY=1;exitDx=0;exitDy=0;entryX=0.5;entryY=0;entryDx=0;entryDy=0;" edge="1" parent="1" source="t27i11uLKwTqxH_jMoTj-3" target="t27i11uLKwTqxH_jMoTj-5">
          <mxGeometry relative="1" as="geometry" />
        </mxCell>
        <mxCell id="t27i11uLKwTqxH_jMoTj-3" value="a,b = 0,1" style="rounded=1;whiteSpace=wrap;html=1;" vertex="1" parent="1">
          <mxGeometry x="160" y="200" width="120" height="60" as="geometry" />
        </mxCell>
        <mxCell id="t27i11uLKwTqxH_jMoTj-19" style="edgeStyle=orthogonalEdgeStyle;rounded=0;orthogonalLoop=1;jettySize=auto;html=1;exitX=0.5;exitY=1;exitDx=0;exitDy=0;entryX=0.5;entryY=0;entryDx=0;entryDy=0;" edge="1" parent="1" source="t27i11uLKwTqxH_jMoTj-5" target="t27i11uLKwTqxH_jMoTj-6">
          <mxGeometry relative="1" as="geometry" />
        </mxCell>
        <mxCell id="t27i11uLKwTqxH_jMoTj-20" style="edgeStyle=orthogonalEdgeStyle;rounded=0;orthogonalLoop=1;jettySize=auto;html=1;exitX=0;exitY=0.5;exitDx=0;exitDy=0;" edge="1" parent="1" source="t27i11uLKwTqxH_jMoTj-5" target="t27i11uLKwTqxH_jMoTj-10">
          <mxGeometry relative="1" as="geometry">
            <Array as="points">
              <mxPoint x="130" y="320" />
              <mxPoint x="130" y="500" />
            </Array>
          </mxGeometry>
        </mxCell>
        <mxCell id="t27i11uLKwTqxH_jMoTj-5" value="if n == 0" style="rhombus;whiteSpace=wrap;html=1;" vertex="1" parent="1">
          <mxGeometry x="150" y="280" width="140" height="80" as="geometry" />
        </mxCell>
        <mxCell id="t27i11uLKwTqxH_jMoTj-21" style="edgeStyle=orthogonalEdgeStyle;rounded=0;orthogonalLoop=1;jettySize=auto;html=1;exitX=1;exitY=0.5;exitDx=0;exitDy=0;entryX=1;entryY=0.5;entryDx=0;entryDy=0;" edge="1" parent="1" source="t27i11uLKwTqxH_jMoTj-6" target="t27i11uLKwTqxH_jMoTj-15">
          <mxGeometry relative="1" as="geometry">
            <Array as="points">
              <mxPoint x="440" y="410" />
              <mxPoint x="440" y="910" />
            </Array>
          </mxGeometry>
        </mxCell>
        <mxCell id="t27i11uLKwTqxH_jMoTj-6" value="return a" style="rounded=1;whiteSpace=wrap;html=1;" vertex="1" parent="1">
          <mxGeometry x="160" y="380" width="120" height="60" as="geometry" />
        </mxCell>
        <mxCell id="t27i11uLKwTqxH_jMoTj-35" style="edgeStyle=orthogonalEdgeStyle;rounded=0;orthogonalLoop=1;jettySize=auto;html=1;exitX=0.5;exitY=1;exitDx=0;exitDy=0;" edge="1" parent="1" source="t27i11uLKwTqxH_jMoTj-8" target="t27i11uLKwTqxH_jMoTj-15">
          <mxGeometry relative="1" as="geometry">
            <Array as="points">
              <mxPoint x="140" y="748" />
              <mxPoint x="190" y="748" />
            </Array>
          </mxGeometry>
        </mxCell>
        <mxCell id="t27i11uLKwTqxH_jMoTj-8" value="return b" style="rounded=1;whiteSpace=wrap;html=1;" vertex="1" parent="1">
          <mxGeometry x="80" y="555" width="120" height="60" as="geometry" />
        </mxCell>
        <mxCell id="t27i11uLKwTqxH_jMoTj-28" style="edgeStyle=orthogonalEdgeStyle;rounded=0;orthogonalLoop=1;jettySize=auto;html=1;exitX=1;exitY=0.5;exitDx=0;exitDy=0;" edge="1" parent="1" source="t27i11uLKwTqxH_jMoTj-10">
          <mxGeometry relative="1" as="geometry">
            <mxPoint x="300" y="540" as="targetPoint" />
            <Array as="points">
              <mxPoint x="300" y="500" />
            </Array>
          </mxGeometry>
        </mxCell>
        <mxCell id="t27i11uLKwTqxH_jMoTj-10" value="elif n == 1" style="rhombus;whiteSpace=wrap;html=1;" vertex="1" parent="1">
          <mxGeometry x="150" y="460" width="140" height="80" as="geometry" />
        </mxCell>
        <mxCell id="t27i11uLKwTqxH_jMoTj-31" style="edgeStyle=orthogonalEdgeStyle;rounded=0;orthogonalLoop=1;jettySize=auto;html=1;exitX=0.5;exitY=1;exitDx=0;exitDy=0;entryX=0.5;entryY=0;entryDx=0;entryDy=0;" edge="1" parent="1" source="t27i11uLKwTqxH_jMoTj-11" target="t27i11uLKwTqxH_jMoTj-12">
          <mxGeometry relative="1" as="geometry" />
        </mxCell>
        <mxCell id="t27i11uLKwTqxH_jMoTj-37" style="edgeStyle=orthogonalEdgeStyle;rounded=0;orthogonalLoop=1;jettySize=auto;html=1;exitX=0;exitY=0.5;exitDx=0;exitDy=0;" edge="1" parent="1" source="t27i11uLKwTqxH_jMoTj-11" target="t27i11uLKwTqxH_jMoTj-15">
          <mxGeometry relative="1" as="geometry">
            <Array as="points">
              <mxPoint x="220" y="585" />
            </Array>
          </mxGeometry>
        </mxCell>
        <mxCell id="t27i11uLKwTqxH_jMoTj-11" value="for i in range (n-1)" style="rhombus;whiteSpace=wrap;html=1;" vertex="1" parent="1">
          <mxGeometry x="230" y="545" width="140" height="80" as="geometry" />
        </mxCell>
        <mxCell id="t27i11uLKwTqxH_jMoTj-32" style="edgeStyle=orthogonalEdgeStyle;rounded=0;orthogonalLoop=1;jettySize=auto;html=1;exitX=0.5;exitY=1;exitDx=0;exitDy=0;entryX=0.5;entryY=0;entryDx=0;entryDy=0;" edge="1" parent="1" source="t27i11uLKwTqxH_jMoTj-12" target="t27i11uLKwTqxH_jMoTj-14">
          <mxGeometry relative="1" as="geometry" />
        </mxCell>
        <mxCell id="t27i11uLKwTqxH_jMoTj-12" value="a,b = b,a+b" style="rounded=1;whiteSpace=wrap;html=1;" vertex="1" parent="1">
          <mxGeometry x="240" y="640" width="120" height="60" as="geometry" />
        </mxCell>
        <mxCell id="t27i11uLKwTqxH_jMoTj-36" style="edgeStyle=orthogonalEdgeStyle;rounded=0;orthogonalLoop=1;jettySize=auto;html=1;exitX=1;exitY=0.5;exitDx=0;exitDy=0;entryX=1;entryY=0.5;entryDx=0;entryDy=0;" edge="1" parent="1" source="t27i11uLKwTqxH_jMoTj-13" target="t27i11uLKwTqxH_jMoTj-11">
          <mxGeometry relative="1" as="geometry" />
        </mxCell>
        <mxCell id="t27i11uLKwTqxH_jMoTj-13" value="return b" style="rounded=1;whiteSpace=wrap;html=1;" vertex="1" parent="1">
          <mxGeometry x="240" y="800" width="120" height="60" as="geometry" />
        </mxCell>
        <mxCell id="t27i11uLKwTqxH_jMoTj-33" style="edgeStyle=orthogonalEdgeStyle;rounded=0;orthogonalLoop=1;jettySize=auto;html=1;exitX=0.5;exitY=1;exitDx=0;exitDy=0;entryX=0.5;entryY=0;entryDx=0;entryDy=0;" edge="1" parent="1" source="t27i11uLKwTqxH_jMoTj-14" target="t27i11uLKwTqxH_jMoTj-13">
          <mxGeometry relative="1" as="geometry" />
        </mxCell>
        <mxCell id="t27i11uLKwTqxH_jMoTj-14" value="&amp;nbsp;num3 +=1" style="rounded=1;whiteSpace=wrap;html=1;" vertex="1" parent="1">
          <mxGeometry x="240" y="720" width="120" height="60" as="geometry" />
        </mxCell>
        <mxCell id="t27i11uLKwTqxH_jMoTj-15" value="終了" style="rounded=0;whiteSpace=wrap;html=1;" vertex="1" parent="1">
          <mxGeometry x="160" y="880" width="120" height="60" as="geometry" />
        </mxCell>
        <mxCell id="t27i11uLKwTqxH_jMoTj-22" value="True" style="text;html=1;align=center;verticalAlign=middle;resizable=0;points=[];autosize=1;strokeColor=none;fillColor=none;" vertex="1" parent="1">
          <mxGeometry x="225" y="358" width="50" height="30" as="geometry" />
        </mxCell>
        <mxCell id="t27i11uLKwTqxH_jMoTj-23" value="False" style="text;html=1;align=center;verticalAlign=middle;resizable=0;points=[];autosize=1;strokeColor=none;fillColor=none;" vertex="1" parent="1">
          <mxGeometry x="115" y="278" width="50" height="30" as="geometry" />
        </mxCell>
        <mxCell id="t27i11uLKwTqxH_jMoTj-24" style="edgeStyle=orthogonalEdgeStyle;rounded=0;orthogonalLoop=1;jettySize=auto;html=1;exitX=0.5;exitY=1;exitDx=0;exitDy=0;entryX=0.433;entryY=0.094;entryDx=0;entryDy=0;entryPerimeter=0;" edge="1" parent="1" source="t27i11uLKwTqxH_jMoTj-10" target="t27i11uLKwTqxH_jMoTj-8">
          <mxGeometry relative="1" as="geometry">
            <Array as="points">
              <mxPoint x="132" y="540" />
            </Array>
          </mxGeometry>
        </mxCell>
        <mxCell id="t27i11uLKwTqxH_jMoTj-29" value="False" style="text;html=1;align=center;verticalAlign=middle;resizable=0;points=[];autosize=1;strokeColor=none;fillColor=none;" vertex="1" parent="1">
          <mxGeometry x="295" y="508" width="50" height="30" as="geometry" />
        </mxCell>
        <mxCell id="t27i11uLKwTqxH_jMoTj-30" value="True" style="text;html=1;align=center;verticalAlign=middle;resizable=0;points=[];autosize=1;strokeColor=none;fillColor=none;" vertex="1" parent="1">
          <mxGeometry x="115" y="518" width="50" height="30" as="geometry" />
        </mxCell>
        <mxCell id="t27i11uLKwTqxH_jMoTj-38" value="False" style="text;html=1;align=center;verticalAlign=middle;resizable=0;points=[];autosize=1;strokeColor=none;fillColor=none;" vertex="1" parent="1">
          <mxGeometry x="215" y="548" width="50" height="30" as="geometry" />
        </mxCell>
        <mxCell id="t27i11uLKwTqxH_jMoTj-39" value="True" style="text;html=1;align=center;verticalAlign=middle;resizable=0;points=[];autosize=1;strokeColor=none;fillColor=none;" vertex="1" parent="1">
          <mxGeometry x="305" y="608" width="50" height="30" as="geometry" />
        </mxCell>
      </root>
    </mxGraphModel>
  </diagram>
</mxfile>
